<svg xmlns="http://www.w3.org/2000/svg" width="80" height="80" viewBox="0 0 80 80"><path d="M0,0H80V80H0Z" fill="none"/><path d="M39.962,2A38,38,0,1,0,78,40,37.981,37.981,0,0,0,39.962,2ZM66.3,24.8H55.086a59.467,59.467,0,0,0-5.244-13.528A30.513,30.513,0,0,1,66.3,24.8ZM40,9.752A53.53,53.53,0,0,1,47.258,24.8H32.742A53.53,53.53,0,0,1,40,9.752ZM10.588,47.6A31.319,31.319,0,0,1,9.6,40a31.319,31.319,0,0,1,.988-7.6H23.432A62.758,62.758,0,0,0,22.9,40a62.758,62.758,0,0,0,.532,7.6ZM13.7,55.2h11.21a59.466,59.466,0,0,0,5.244,13.528A30.35,30.35,0,0,1,13.7,55.2Zm11.21-30.4H13.7A30.35,30.35,0,0,1,30.158,11.272,59.467,59.467,0,0,0,24.914,24.8ZM40,70.248A53.53,53.53,0,0,1,32.742,55.2H47.258A53.53,53.53,0,0,1,40,70.248ZM48.892,47.6H31.108A55.908,55.908,0,0,1,30.5,40a55.422,55.422,0,0,1,.608-7.6H48.892A55.423,55.423,0,0,1,49.5,40,55.909,55.909,0,0,1,48.892,47.6Zm.95,21.128A59.467,59.467,0,0,0,55.086,55.2H66.3A30.513,30.513,0,0,1,49.842,68.728ZM56.568,47.6A62.759,62.759,0,0,0,57.1,40a62.759,62.759,0,0,0-.532-7.6H69.412A31.319,31.319,0,0,1,70.4,40a31.319,31.319,0,0,1-.988,7.6Z" fill="#ff4c00"/></svg>